<svg width="254" height="292"><defs id="SvgjsDefs2925"></defs><g id="main_text" rel="mainfill" name="main_text" feature="main_text" xmlns:name="mainText_mainfill" groupname="main_text" fill="#ffffff" transform="translate(134, 292) scale(6.364244517619381)"><path d=""></path></g><g id="SvgjsG2927" rel="mainfill" name="symbol" feature="symbol" xmlns:name="symbol_mainfill" fill="#10c998" transform="translate(-72.50868055555556, -51.55771317746904) scale(4.118055555555555)"><defs><g id="a"><path fill="#10c998" stroke="none" d=" M 78.05 36.75 Q 76.75 32.6 73.75 28.35 70.95 23.5 64.15 19.75 55.05 14.65 45.1 16.8 32.2 19.55 25.85 31.1 21.25 39.4 21.25 48.75 21.25 53 22.5 56.45 23.8 60.05 27.1 64.65 29.6 68.1 37 72.35 45.75 77.35 52.7 77.35 61.3 77.35 69.8 68.25 79.25 58.15 79.25 45 79.25 40.55 78.05 36.75 M 40.8 43.05 Q 41.4 44.15 43.45 49.45 44.35 47.7 46.1 41.85 47.1 38.35 48.95 38.2 51.25 38 52.4 40.8 52.6 41.25 53.2 44.2 53.85 47.4 55.85 50.55 56.3 49.05 57.55 45.6 58.7 42.45 59.15 40.65 59.3 39.7 59.9 38.05 60.5 36.3 60.7 35.6 60.9 35 61.9 34.45 63.1 33.85 64.15 34.35 65 34.95 65.3 35.45 65.45 35.85 65.55 36.65 65.65 38 63.95 42.45 62.05 47.45 61.95 47.75 61.75 48.7 61.15 50.5 60.55 52.35 60.35 53.3 60.3 53.45 60 55.85 59.4 58.25 57.45 58.4 54.8 58.65 52 54.35 50.5 51.9 49.15 48.45 48.75 49.4 47.05 54 45.15 58.1 43.45 58.25 40.9 58.45 39.3 54.15 38.15 49.55 37.95 49.15 34.05 41.25 33.9 39.65 33.85 38.9 34.2 38.25 34.75 37.05 36.2 36.95 37.85 36.8 38.65 38.2 39.15 38.9 39.3 39.8 39.85 40.75 40.8 43.05 Z"></path></g></defs><g transform="matrix( 1, 0, 0, 1, 0,0) "><use href="#a"></use></g></g></svg>